<svg width="68" height="67" viewBox="0 0 68 67" fill="none" xmlns="http://www.w3.org/2000/svg">
<circle cx="36" cy="35" r="32" fill="#FABC3C"/>
<circle cx="32" cy="32" r="31.5" stroke="#624763"/>
<path d="M20 34H46V40.8571L44 45L39.5 46V40.8571H20V34Z" fill="white"/>
<rect x="20" y="28" width="26" height="3" fill="white"/>
<path d="M39.1893 46.7738C39.1244 46.7882 39.0612 46.8019 39 46.8148L39 42L39 41L38 41L20 41L20 27.5629L20 23L46 23L46 27.5629L47 27.5629L46 27.5629L46 27.5632L46 27.5642L46 27.5683L46 27.5844L46 27.6478L46 27.8941L46 28.8187L46 32.0314L46 41C46 43.3868 44.2366 44.8839 42.0939 45.8362C41.0486 46.3008 39.9919 46.5955 39.1893 46.7738Z" stroke="#3C001D" stroke-width="2"/>
<path d="M25 38L30 33L33 36L38 31L41 34L46 29" stroke="#3C001D" stroke-width="2"/>
</svg>