<svg width="68" height="67" viewBox="0 0 68 67" fill="none" xmlns="http://www.w3.org/2000/svg">
<circle cx="36" cy="35" r="32" fill="#FABC3C"/>
<circle cx="32" cy="32" r="31.5" stroke="#624763"/>
<circle cx="23" cy="19" r="1" fill="white"/>
<circle cx="23" cy="29" r="5" fill="white" stroke="#3C001D" stroke-width="2"/>
<path d="M23 37C25.5328 37 27.7172 39.0843 27.9747 41.8752L23 44.8363L18.0253 41.8752C18.2828 39.0843 20.4672 37 23 37Z" fill="white" stroke="#3C001D" stroke-width="2"/>
<circle cx="42" cy="29" r="5" stroke="#3C001D" stroke-width="2"/>
<path d="M42 37C44.5328 37 46.7172 39.0843 46.9747 41.8752L42 44.8363L37.0253 41.8752C37.2828 39.0843 39.4672 37 42 37Z" stroke="#3C001D" stroke-width="2"/>
<circle cx="36" cy="29" r="5" fill="#FABC3C" stroke="#3C001D" stroke-width="2"/>
<path d="M36 37C38.5328 37 40.7172 39.0843 40.9747 41.8752L36 44.8363L31.0253 41.8752C31.2828 39.0843 33.4672 37 36 37Z" fill="#FABC3C" stroke="#3C001D" stroke-width="2"/>
<path d="M27 19C27 19.5523 27.4477 20 28 20H31C31.5523 20 32 19.5523 32 19C32 18.4477 31.5523 18 31 18H28C27.4477 18 27 18.4477 27 19Z" fill="#3C001D"/>
<path d="M37 19C37 19.5523 36.5523 20 36 20C35.4477 20 35 19.5523 35 19C35 18.4477 35.4477 18 36 18C36.5523 18 37 18.4477 37 19Z" fill="#3C001D"/>
<path d="M43 19C43 19.5523 42.5523 20 42 20C41.4477 20 41 19.5523 41 19C41 18.4477 41.4477 18 42 18C42.5523 18 43 18.4477 43 19Z" fill="#3C001D"/>
</svg>