<svg width="32" height="31" viewBox="0 0 32 31" fill="none" xmlns="http://www.w3.org/2000/svg">
    <path d="M5.39351 0.00673238C4.58013 -0.0694544 3.85138 0.509341 3.74145 1.31885L0.0142159 28.7648C-0.1204 29.7561 0.720469 30.606 1.71311 30.4819L7.99913 29.6964L15.929 28.7055L30.1977 26.9225C31.0544 26.8154 31.6511 26.0188 31.513 25.1666L27.9626 3.26646C27.8515 2.58136 27.2916 2.05786 26.6006 1.99314L5.39351 0.00673238Z" fill="#FABC3C"/>
    <path fill-rule="evenodd" clip-rule="evenodd" d="M13.2218 14.9368L6.84317 8.55807L11.0858 4.31543L19.5858 12.8154C20.7574 13.987 20.7574 15.8865 19.5858 17.0581L11.0858 25.5581L6.84317 21.3154L13.2218 14.9368Z" fill="white"/>
    <path fill-rule="evenodd" clip-rule="evenodd" d="M15.2071 3.72949L24.0607 12.583C25.4275 13.9499 25.4275 16.166 24.0607 17.5328L15.2071 26.3863L10.2574 21.4366L16.6361 15.0579L10.2574 8.67924L15.2071 3.72949ZM15.2071 5.14371L11.6716 8.67924L18.0503 15.0579L11.6716 21.4366L15.2071 24.9721L23.3536 16.8257C24.3299 15.8494 24.3299 14.2665 23.3536 13.2902L15.2071 5.14371Z" fill="#232322"/>
</svg>