<svg width="62" height="62" viewBox="0 0 62 62" fill="none" xmlns="http://www.w3.org/2000/svg">
<path d="M10.5187 1.10505C8.94279 0.957443 7.53084 2.07886 7.31785 3.64728L0.0963299 56.8239C-0.164489 58.7445 1.46469 60.3911 3.38794 60.1508L15.5671 58.6289C18.9821 55.7082 22.7205 52.1533 24.518 49.8413C26.7627 47.1564 28.4824 44.1762 29.6774 40.9006C29.7236 40.7739 29.6294 40.6404 29.4945 40.6404C26.1769 40.6404 23.4582 39.5292 21.3386 37.3068C19.3112 34.9955 18.2975 32.2841 18.2975 29.1727V28.5059C18.2975 25.0389 19.4033 22.1498 21.6151 19.8384C23.919 17.4382 27.1445 16.2381 31.2916 16.2381C35.5308 16.2381 38.7562 17.4827 40.968 19.9718C43.1798 22.4609 44.2857 25.3501 44.2857 28.6393V30.2394C44.2857 35.7511 42.7651 40.996 39.7239 45.9743C37.669 49.4433 34.2693 53.4159 30.9313 56.709L58.5769 53.2543C60.2367 53.0469 61.3928 51.5034 61.1252 49.8523L54.2463 7.42077C54.0312 6.09339 52.9462 5.07912 51.6074 4.95371L10.5187 1.10505Z" fill="#FABC3C"/>
<path fill-rule="evenodd" clip-rule="evenodd" d="M32.7323 47.8764C32.7416 47.8617 32.7511 47.8471 32.7609 47.8327C34.2122 45.6961 35.3308 43.4162 36.1186 40.9894C33.3694 40.9025 30.9168 39.9712 28.828 38.1693C28.8125 38.1559 28.7973 38.1422 28.7823 38.1282C26.3793 35.874 25.0042 33.0604 24.6775 29.7537L24.6149 29.1203C24.2557 25.4838 25.1179 22.2494 27.252 19.5207L27.2534 19.5189C29.5183 16.632 32.8762 15.0521 37.1028 14.6345C41.4187 14.2082 45.0527 15.143 47.7724 17.6616C50.3637 20.0614 51.8517 23.035 52.1963 26.5234L52.3465 28.0436C52.8917 33.5622 51.8875 38.9552 49.365 44.1962C46.9794 49.3212 42.1279 55.5812 38.3132 59.4535C37.9451 59.8271 37.4638 60.0494 36.9583 60.0993L26.5664 61.1259C24.4703 61.333 23.334 58.8121 24.7536 57.3501C27.8402 54.1715 31.2474 50.2384 32.7323 47.8764ZM48.0307 43.5645C50.4458 38.5503 51.3947 33.425 50.8774 28.1887L50.7273 26.6685C50.4185 23.5437 49.0992 20.9024 46.7694 18.7447C44.4395 16.587 41.2657 15.7067 37.2479 16.1036C33.3175 16.4919 30.3731 17.934 28.4148 20.4301C26.5355 22.833 25.7586 25.6814 26.084 28.9751L26.1465 29.6086C26.4386 32.5645 27.6538 35.0455 29.7923 37.0515C31.7014 38.6985 33.9542 39.5213 36.5504 39.5201C36.556 39.5201 36.5617 39.5201 36.5673 39.52C36.8091 39.5196 37.0538 39.512 37.3014 39.4973C37.4778 39.4868 37.6557 39.4727 37.835 39.455C37.9629 39.4423 38.0648 39.56 38.0329 39.6845C37.9917 39.8456 37.9491 40.0061 37.9053 40.166C37.836 40.4188 37.7634 40.6702 37.6875 40.9201C37.6844 40.9303 37.6813 40.9406 37.6782 40.9509C36.8417 43.6956 35.6096 46.266 33.9821 48.6621C32.4095 51.1636 28.9092 55.1896 25.8127 58.3785C25.3275 58.8781 25.7282 59.7254 26.4212 59.6569L36.8132 58.6303C36.9835 58.6134 37.1415 58.5394 37.2616 58.4175C41.0053 54.6173 45.7409 48.4887 48.0307 43.5645Z" fill="#232322"/>
</svg>