<?xml version="1.0" standalone="no"?>
<!DOCTYPE svg PUBLIC "-//W3C//DTD SVG 20010904//EN"
 "http://www.w3.org/TR/2001/REC-SVG-20010904/DTD/svg10.dtd">
<svg version="1.0" xmlns="http://www.w3.org/2000/svg"
 width="700.000000pt" height="700.000000pt" viewBox="0 0 700.000000 700.000000"
 preserveAspectRatio="xMidYMid meet">
<metadata>
Created by potrace 1.11, written by Peter Selinger 2001-2013
</metadata>
<g transform="translate(0.000000,700.000000) scale(0.100000,-0.100000)"
fill="#000000" stroke="none">
<path d="M1128 6875 c-2 -2 -19 -5 -38 -8 -128 -16 -248 -151 -265 -297 -3
-30 -8 -62 -10 -70 -2 -8 -7 -40 -11 -70 -4 -30 -8 -64 -9 -75 -2 -11 -17
-126 -34 -255 -18 -129 -34 -242 -36 -250 -2 -8 -7 -42 -10 -75 -6 -57 -11
-97 -20 -155 -3 -14 -7 -47 -10 -75 -3 -27 -8 -61 -10 -75 -3 -14 -7 -45 -10
-69 -3 -23 -7 -55 -9 -70 -4 -23 -14 -100 -21 -156 -5 -38 -15 -110 -22 -150
-3 -22 -7 -51 -8 -65 -2 -14 -8 -63 -15 -110 -15 -107 -18 -133 -25 -195 -3
-27 -7 -57 -10 -65 -2 -8 -6 -40 -10 -71 -3 -31 -7 -65 -9 -76 -2 -10 -7 -46
-11 -78 -4 -33 -9 -67 -10 -75 -5 -29 -15 -95 -20 -140 -4 -25 -8 -56 -10 -70
-2 -14 -6 -47 -10 -75 -4 -27 -8 -63 -11 -80 -2 -16 -10 -82 -19 -145 -23
-177 -24 -183 -29 -210 -2 -14 -7 -52 -11 -85 -4 -32 -8 -62 -10 -65 -2 -3 -6
-39 -10 -80 -4 -41 -8 -77 -10 -80 -2 -3 -6 -31 -9 -61 -3 -29 -7 -63 -10 -74
-2 -11 -7 -49 -12 -85 -4 -36 -8 -67 -9 -70 -1 -3 -5 -36 -10 -75 -5 -38 -9
-72 -10 -75 0 -3 -5 -32 -9 -65 -8 -66 -15 -116 -21 -155 -2 -14 -11 -79 -20
-145 -9 -66 -18 -131 -20 -145 -2 -14 -6 -47 -10 -75 -3 -27 -8 -61 -10 -75
-3 -22 -38 -275 -50 -370 -3 -19 -14 -100 -25 -180 -11 -80 -22 -165 -25 -189
-3 -23 -7 -55 -9 -70 -3 -14 -7 -46 -11 -71 -6 -48 -24 -178 -30 -220 -2 -14
-6 -50 -10 -80 -3 -30 -8 -66 -11 -80 -2 -14 -6 -41 -9 -60 -3 -19 -10 -75
-17 -125 -7 -49 -13 -130 -13 -180 1 -80 4 -96 29 -142 37 -67 88 -118 151
-151 44 -24 61 -27 150 -27 89 0 165 6 245 20 14 2 45 6 70 9 70 8 317 39 405
50 11 2 49 7 85 11 36 4 73 9 82 10 9 2 48 7 85 10 37 4 70 9 73 10 3 2 39 6
80 10 41 4 77 8 80 10 3 2 35 6 70 10 36 3 74 7 85 10 11 2 28 4 37 4 10 1 26
9 36 18 10 10 36 33 57 52 22 19 72 63 111 98 40 35 81 72 92 81 109 95 471
450 592 582 145 158 328 403 441 591 115 192 279 541 279 594 0 10 -10 15 -27
16 -301 7 -552 86 -753 237 -92 69 -164 139 -221 217 -33 44 -64 85 -69 92
-27 34 -120 230 -143 304 -53 169 -70 283 -69 481 0 298 44 496 154 709 192
370 528 610 958 685 14 2 34 6 45 9 28 6 146 16 233 20 l73 3 -78 -46 c-43
-25 -80 -48 -83 -51 -3 -4 -20 -18 -39 -30 -237 -166 -446 -485 -517 -789 -32
-137 -38 -195 -38 -372 0 -155 5 -222 30 -375 57 -350 286 -714 572 -907 184
-124 419 -207 628 -222 27 -2 54 -4 60 -5 13 -1 -31 -127 -93 -271 -95 -217
-253 -485 -408 -691 -43 -57 -81 -106 -84 -109 -3 -3 -33 -39 -66 -80 -89
-110 -96 -118 -150 -179 -27 -31 -54 -62 -60 -69 -5 -7 -21 -25 -35 -40 -14
-15 -43 -47 -64 -72 -22 -25 -94 -103 -160 -174 -171 -182 -176 -187 -198
-230 -46 -90 -13 -239 67 -301 67 -50 100 -58 215 -51 58 4 116 8 130 10 14 2
61 7 104 11 43 4 86 8 95 10 9 1 52 6 96 10 44 4 98 9 120 11 22 2 65 6 95 8
30 3 75 8 100 10 25 3 74 8 110 12 36 4 76 8 90 9 14 2 61 6 105 10 96 8 158
21 194 39 45 24 423 432 467 504 3 5 58 13 259 37 28 4 61 8 75 10 14 2 52 6
85 10 32 4 67 8 77 10 9 2 48 7 85 10 37 4 75 9 84 10 9 2 40 6 70 10 30 3
124 15 209 26 85 11 175 22 200 25 25 3 56 7 70 9 14 2 50 6 80 10 30 3 87 10
125 15 97 13 142 19 200 25 28 3 68 8 90 11 72 10 89 13 145 19 83 10 156 42
204 88 38 38 83 98 78 105 -1 1 5 16 13 33 19 36 22 138 6 224 -6 33 -13 76
-16 95 -3 19 -10 60 -15 90 -5 30 -12 73 -15 95 -3 23 -7 50 -9 62 -3 11 -7
38 -10 59 -11 69 -72 444 -82 504 -2 14 -6 34 -8 45 -2 11 -7 40 -10 65 -3 25
-8 55 -10 66 -6 30 -16 93 -21 129 -2 17 -16 100 -30 185 -14 85 -28 171 -31
190 -2 19 -7 46 -10 60 -8 43 -11 64 -18 111 -4 25 -9 57 -11 70 -22 129 -85
524 -90 559 -3 25 -8 52 -10 60 -2 8 -7 33 -10 55 -3 23 -7 50 -9 60 -3 18
-10 62 -22 138 -2 15 -6 42 -9 60 -3 17 -8 43 -10 57 -2 14 -13 81 -25 150
-24 143 -27 160 -35 215 -3 23 -8 52 -10 65 -3 14 -7 43 -10 65 -3 22 -7 51
-10 65 -3 14 -8 41 -11 60 -4 28 -35 216 -69 420 -3 19 -7 46 -10 60 -4 22
-10 61 -20 135 -2 11 -9 52 -15 90 -7 39 -14 84 -17 100 -2 17 -15 95 -28 175
-13 80 -26 165 -30 190 -31 214 -85 311 -205 367 -59 28 -81 31 -320 53 -63 6
-133 13 -155 15 -22 2 -71 7 -110 10 -38 3 -90 8 -115 10 -45 5 -127 12 -210
20 -147 13 -178 16 -210 20 -33 4 -85 9 -225 21 -33 3 -76 7 -95 9 -19 2 -66
7 -105 10 -86 7 -170 15 -210 20 -16 2 -66 7 -110 10 -44 3 -96 8 -115 10 -19
2 -66 7 -105 10 -65 5 -116 10 -205 20 -19 2 -66 7 -105 10 -38 3 -88 8 -110
10 -22 2 -71 7 -110 10 -38 3 -81 8 -95 10 -14 2 -63 6 -110 10 -47 3 -98 7
-115 9 -16 2 -64 7 -105 11 -41 3 -86 8 -100 10 -14 2 -63 6 -110 10 -47 4
-96 8 -110 10 -14 2 -61 7 -105 10 -44 3 -99 8 -122 10 -98 11 -132 15 -208
20 -44 4 -91 8 -105 10 -14 2 -59 6 -100 10 -41 3 -91 7 -110 10 -19 2 -66 7
-105 10 -38 4 -83 8 -100 10 -16 2 -68 7 -115 10 -47 3 -96 8 -110 10 -22 3
-59 7 -222 19 -26 2 -48 3 -50 1z m2861 -1759 c90 -19 261 -88 369 -150 157
-88 351 -295 458 -488 82 -147 150 -352 173 -523 9 -68 7 -620 -2 -660 -3 -11
-8 -51 -11 -90 -12 -125 -37 -259 -77 -420 -30 -118 -97 -331 -124 -390 -7
-16 -26 -61 -41 -100 -33 -83 -130 -281 -175 -356 -17 -30 -43 -74 -57 -99
-70 -126 -295 -447 -399 -570 -12 -14 -59 -70 -104 -125 -46 -55 -99 -118
-119 -139 -64 -71 -174 -188 -245 -260 -38 -39 -85 -88 -103 -108 l-34 -38 48
5 c27 2 65 7 84 10 19 2 53 7 75 10 22 2 114 14 205 25 91 11 181 23 200 25
19 3 55 7 80 10 61 7 142 17 160 20 8 1 44 6 80 10 l65 7 -20 -23 c-98 -117
-266 -295 -290 -307 -18 -9 -64 -16 -180 -27 -78 -7 -171 -16 -215 -21 -25 -2
-65 -6 -90 -9 -25 -3 -70 -7 -100 -10 -30 -3 -76 -7 -102 -10 -139 -14 -229
-23 -318 -31 -41 -3 -78 -8 -81 -10 -4 -2 -42 -5 -84 -6 -73 -2 -79 0 -101 26
-47 53 -37 75 101 222 126 134 125 133 225 244 41 47 93 105 116 130 70 77
282 338 355 436 160 215 323 495 419 720 92 214 179 494 154 494 -160 2 -346
9 -369 14 -16 4 -49 11 -73 17 -166 37 -370 145 -492 261 -124 118 -229 268
-292 418 -38 90 -64 166 -73 215 -35 187 -46 279 -47 420 -4 416 190 808 513
1037 94 67 214 127 345 173 96 34 118 36 193 21z"/>
</g>
</svg>
